<svg xmlns="http://www.w3.org/2000/svg" width="512" height="512" viewBox="0 0 512 512" fill="none">
  <rect width="512" height="512" rx="128" fill="#ad46ff"/>
  <g class="lucide lucide-droplets" stroke="#ffffff" stroke-width="42.6667" stroke-linecap="round" stroke-linejoin="round" fill="none">
    <path d="M149.333 347.733c46.933 0 85.333-39.04 85.333-86.4 0-24.747-12.16-48.213-36.48-68.053-24.32-19.84-42.667-49.28-48.853-80.32-6.187 31.04-24.32 60.587-48.853 80.32-24.533 19.733-36.48 43.307-36.48 68.053 0 47.36 38.4 86.4 85.333 86.4z"/>
    <path d="M268.373 140.8c10.667-23.04 20.16-48.64 23.04-76.587 10.667 53.333 42.667 104.533 85.333 138.667 42.667 34.133 64 74.667 64 117.333a148.907 148.907 0 0 1-254.08 106.027"/>
  </g>
</svg>
